<svg xmlns="http://www.w3.org/2000/svg" viewBox="0 0 64 64" stroke-width="3" stroke="currentColor" fill="none"><path d="M51.71,25.51s-4.17-4.9-9.6-4.9A20.22,20.22,0,0,0,33.9,22.3a2.82,2.82,0,0,1-2.08.11c-2.1-.68-6.14-1.87-9.76-1.58-4.13.33-7.11,4.22-7.11,4.22s-3.34,4-3.34,11.32a24.83,24.83,0,0,0,7,17.68s4.54,5.49,8.46,3.11a10,10,0,0,1,10-.44c2,1.23,5.74,1.71,8-.56a26.54,26.54,0,0,0,6.9-11s-6.45-4.45-6.23-9.91S51.71,25.51,51.71,25.51Z"/><path d="M33.35,17.67a10.33,10.33,0,0,1,8.7-11.11S42.94,16.61,33.35,17.67Z"/></svg>