<!--?xml version="1.0" encoding="utf-8"?-->
<!-- Generator: Adobe Illustrator 18.1.1, SVG Export Plug-In . SVG Version: 6.00 Build 0)  -->

<svg version="1.1" id="_x32_" xmlns="http://www.w3.org/2000/svg" xmlns:xlink="http://www.w3.org/1999/xlink" x="0px" y="0px" viewBox="0 0 512 512" style="width: 256px; height: 256px; opacity: 1;" xml:space="preserve">
<style type="text/css">
	.st0{fill:#4B4B4B;}
</style>
<g>
	<path class="st0" d="M180.4,212.472c-24.094,41.731-9.789,95.104,31.95,119.214c41.731,24.086,95.112,9.789,119.214-31.95
		c24.094-41.739,9.789-95.112-31.95-119.214C257.882,156.428,204.509,170.725,180.4,212.472z" style="fill: rgb(67, 69, 46);"></path>
	<path class="st0" d="M188.113,373.664c-21.399-12.349-38.122-29.708-49.636-49.715l-0.048,0.024L29.943,136.087
		C-34.49,257.272,8.187,408.636,127.981,477.802c26.893,15.521,55.432,25.612,84.345,30.598l68.696-118.976
		C250.233,395.229,217.304,390.53,188.113,373.664z" style="fill: rgb(67, 69, 46);"></path>
	<path class="st0" d="M138.422,188.228c25.072-43.433,70.692-67.734,117.56-67.814v-0.055h217.038
		c-21.478-34.423-51.448-64.243-89.037-85.952C274.43-28.842,137.595-1.862,59.357,92.233l68.592,118.793
		C130.701,203.256,134.143,195.623,138.422,188.228z" style="fill: rgb(67, 69, 46);"></path>
	<path class="st0" d="M496.222,167.759H359.029c36.38,42.51,44.053,105.076,14.512,156.213L265.047,511.914
		c85.156-3.109,166.885-48.57,212.632-127.81C517.191,315.663,521.486,236.558,496.222,167.759z" style="fill: rgb(67, 69, 46);"></path>
</g>
</svg>
