<svg xmlns="http://www.w3.org/2000/svg" viewBox="0 0 64 64" stroke-width="3" stroke="currentColor" fill="none"><path d="M15.68,52.5,8.27,41.35a1.21,1.21,0,0,1,.34-1.67l4.68-3a1.2,1.2,0,0,1,1.64.32l7.56,11a1.21,1.21,0,0,1-.32,1.68l-4.82,3.23A1.2,1.2,0,0,1,15.68,52.5Z" stroke-linecap="round"/><path d="M15.76,38.14l7.8-4.91a2.21,2.21,0,0,1,1.7-.27c2.77.72,11.1,3,14.17,4.08,2.31.81,3.24,3.09,2.31,4.6-1.26,2-3.18,1.8-4.56,1.41a3.62,3.62,0,0,1-.55-.2l-5.46-2.32" stroke-linecap="round"/><path d="M21.81,47l2.55-1.46,14.43,4a1.09,1.09,0,0,0,.88-.14c2-1.31,10.71-7.07,15-10.1a2.4,2.4,0,0,0,.3-4,3.1,3.1,0,0,0-3.71-.32c-1.5.84-5.67,3.93-5.67,3.93" stroke-linecap="round"/><path d="M30.39,17.55A5.48,5.48,0,0,1,35.53,11c3.09-.25,4.61,3.48,4.91,4.19a.06.06,0,0,0,.11,0c1.43-3.93,4-4.09,5-4.19,2.47-.25,5.77,1.65,5.08,6.09-.94,6.18-10.16,13.11-10.16,13.11S31.59,24.19,30.39,17.55Z"/></svg>